<?xml version="1.0" encoding="UTF-8"?>
<svg id="katman_1" xmlns="http://www.w3.org/2000/svg" version="1.1" viewBox="0 0 300 150">
  <!-- Generator: Adobe Illustrator 30.3.0, SVG Export Plug-In . SVG Version: 2.1.3 Build 182)  -->
  <defs>
    <style>
      .st0 {
        fill: #d9a45f;
      }

      .st1 {
        fill: #fff;
      }

      .st2 {
        fill: #010202;
      }
    </style>
  </defs>
  <polygon class="st1" points="46.59 6.85 85.75 15.17 85.75 98.47 46.59 111.02 7.42 98.47 7.42 15.17 46.59 6.85"/>
  <polygon class="st2" points="46.75 10.36 82.28 18.21 82.28 96.78 46.75 108.63 11.2 96.78 11.2 18.21 46.75 10.36"/>
  <path class="st2" d="M46.75,5.29L6.26,14.24v86.11l40.49,13.5,40.49-13.5V14.24L46.75,5.29h0ZM84.56,98.42l-37.81,12.61-37.82-12.61V16.38l37.82-8.35,37.81,8.35v82.04Z"/>
  <polygon class="st0" points="38.93 18.12 29.36 26.87 68.68 26.87 68.68 33 58.06 41.64 50.42 41.64 59.99 32.77 20.71 32.77 20.71 26.99 31.34 18.12 38.93 18.12"/>
  <polygon class="st0" points="56.11 42.82 66.92 50.08 66.92 36.47 72.96 36.47 72.96 84.18 66.99 84.18 66.99 57.04 56.11 49.34 56.11 42.82"/>
  <polygon class="st0" points="65.88 70.11 65.88 62.3 57.43 51.67 51.18 51.67 51.18 90.83 42.37 81.09 42.37 88.73 50.83 99.41 57.13 99.41 57.13 60.32 65.88 70.11"/>
  <path class="st0" d="M28.19,58.76l20.95,24.42v-48.85l-20.95,24.42h0ZM45.34,72.62l-11.91-13.89,11.91-13.83v27.72Z"/>
  <polygon class="st0" points="21.6 46.01 27.02 46.01 27.02 71.81 39.39 75.81 39.39 80.97 26.97 77.06 26.97 85.11 39.39 89.02 39.39 94.16 21.6 88.79 21.6 46.01"/>
  <g>
    <path class="st2" d="M177.03,48.24h-7.27l-2.76-6.72h-13.58l-2.78,6.75-7.25-.03,13.98-33.98h5.68l13.98,33.98h0ZM157.76,30.95l-1.52,3.7,7.92.08-2.21-5.45-1.75-4.26-2.44,5.93h0Z"/>
    <path class="st2" d="M287.13,14.26h7.06l.02,34.02h-7.09l-19.46-24.93v24.93h-7.07V14.26h8.83l17.7,23.26V14.26h.01Z"/>
    <path class="st2" d="M254.2,48.24h-7.27l-2.76-6.72h-13.58l-2.78,6.75-7.25-.03,13.98-33.98h5.68l13.98,33.98h0ZM234.94,30.95l-1.52,3.7,7.92.08-2.21-5.45-1.75-4.26-2.44,5.93h0Z"/>
    <polygon class="st2" points="205.31 14.27 193.52 27.55 191.11 27.55 191.11 14.27 183.64 14.27 183.64 48.29 191.11 48.29 191.11 35.02 193.51 35.02 193.51 35.02 205.29 48.29 215.28 48.29 200.18 31.29 215.3 14.28 215.3 14.27 205.31 14.27"/>
    <g>
      <rect class="st2" x="105.33" y="14.26" width="7.47" height="34.02"/>
      <rect class="st2" x="112.8" y="27.88" width="16.72" height="6.8"/>
      <rect class="st2" x="129.52" y="14.27" width="7.47" height="34.02"/>
    </g>
  </g>
  <path class="st2" d="M138.63,100.12h-7.62l-2.9-6.71h-14.23l-2.91,6.74-7.6-.03,14.65-33.97h5.95l14.65,33.97h0ZM118.45,82.83l-1.59,3.7,8.3.08-2.32-5.45-1.83-4.26-2.56,5.92h0Z"/>
  <path class="st2" d="M147.5,100.16v-34l7.05.02-.03,27.28,19.98-.03.04,6.72h-27.05,0Z"/>
  <path class="st2" d="M234.22,66.15h7.05v34h-7.05v-34h0Z"/>
  <path class="st2" d="M287.14,66.13l7.06-.07.02,34h-7.09l-19.47-24.93v24.93h-7.07v-34h8.84l17.71,23.24v-23.18h0Z"/>
  <path class="st2" d="M202.62,72.94v27.2h-6.56v-27.2l-12.77.08v-6.88h32.1v6.88l-12.77-.08h0Z"/>
  <g>
    <path class="st2" d="M17.24,144.05c-1.44,0-2.84.03-4.12.07v-.52c1.4-.55,1.6-1.96,1.6-5.49v-9.15c0-2.29-.36-3.27-2.55-3.3v-.62l6.86-3.37h.59v16.44c0,3.53.23,5.1,1.67,5.49v.52c-1.44-.03-2.84-.07-4.05-.07h0Z"/>
    <path class="st2" d="M36.59,142.88c0,.46.26.66.69.72v.52c-1.14-.03-2.35-.07-3.53-.07-1.05,0-2.22,0-3.37.07v-.52c1.73-2.35,3.27-5.1,4.9-8.04-1.01.33-2.06.49-3.2.49-3.4,0-6.47-2.58-6.47-6.7,0-4.77,3.4-7.55,8.11-7.55,5.13,0,8.14,2.78,8.14,7.45s-5.26,12.32-5.26,13.63h0ZM33.72,125.62c-1.83,0-3.14,1.44-3.14,3.33s1.21,3.53,3.17,3.53c1.6,0,3.14-1.01,3.14-3.43,0-1.8-1.01-3.43-3.17-3.43h0Z"/>
    <path class="st2" d="M53.2,144.67c-5.03,0-8.24-2.65-8.24-6.44,0-2.81,1.44-4.71,4.35-5.53-2.49-.75-3.73-2.58-3.73-5,0-3.53,3.01-5.95,7.62-5.95s7.62,2.42,7.62,5.95c0,2.42-1.24,4.25-3.73,5,2.91.82,4.38,2.68,4.38,5.53,0,3.82-3.27,6.44-8.27,6.44h0ZM53.2,134.38c-2.09,0-3.27,1.18-3.27,3.43,0,1.96,1.18,3.3,3.27,3.3s3.3-1.4,3.3-3.3c0-2.22-1.21-3.43-3.3-3.43ZM53.2,125.32c-1.73,0-2.65,1.11-2.65,2.91,0,1.6.92,2.71,2.65,2.71s2.65-1.14,2.65-2.71c0-1.8-.92-2.91-2.65-2.91Z"/>
    <path class="st2" d="M72.68,144.64c-5.46,0-8.63-4.09-8.63-11.44s3.14-11.41,8.63-11.41,8.63,4.12,8.63,11.41-3.17,11.44-8.63,11.44ZM72.68,125.62c-2.52,0-3.66,2.49-3.66,7.71s1.18,7.49,3.66,7.49,3.66-2.42,3.66-7.49-1.11-7.71-3.66-7.71Z"/>
  </g>
</svg>